<svg id="svg" xmlns="http://www.w3.org/2000/svg" xmlns:xlink="http://www.w3.org/1999/xlink" 
width="1200" height="1200" viewBox="0, 0, 390,390">
<g><path id="path0" d="M25.781 111.539 C 24.735 112.306,24.375 113.202,24.375 115.035 L 24.375 117.500 16.659 117.500 C 7.799 117.500,5.356 118.536,7.812 121.250 C 8.832 122.376,9.737 122.500,16.972 122.500 L 25.000 122.500 25.000 129.688 L 25.000 136.875 17.284 136.875 C 8.424 136.875,5.981 137.911,8.438 140.625 C 9.457 141.751,10.362 141.875,17.597 141.875 L 25.625 141.875 25.625 144.875 C 25.625 149.487,25.224 149.386,41.826 148.965 C 60.647 148.487,60.596 148.518,61.214 136.875 L 61.563 130.313 64.063 130.103 C 70.339 129.575,84.424 133.298,90.943 137.208 C 103.176 144.544,109.865 157.047,115.521 183.149 C 121.800 212.124,131.021 223.701,151.365 228.153 L 154.918 228.931 155.115 238.997 C 155.380 252.499,158.126 258.844,165.245 262.399 L 167.973 263.762 265.722 263.600 L 363.471 263.438 366.532 260.938 C 374.890 254.111,376.563 248.223,376.563 225.625 C 376.563 196.444,374.528 187.735,365.796 179.542 C 362.780 176.712,359.961 174.392,359.531 174.386 C 357.867 174.363,358.892 173.316,362.136 171.725 C 365.337 170.155,365.875 170.084,371.980 170.430 C 384.790 171.155,392.357 164.659,387.760 156.883 C 385.487 153.036,382.033 151.185,376.407 150.800 C 367.604 150.196,364.240 151.775,361.508 157.791 C 359.497 162.220,355.130 166.648,353.944 165.462 C 353.075 164.593,350.230 155.181,344.262 133.438 C 340.370 119.254,340.226 118.899,337.881 117.685 C 335.646 116.529,194.009 116.983,191.822 118.154 C 191.212 118.480,190.035 120.875,189.150 123.587 C 188.280 126.255,184.997 136.453,181.854 146.250 C 178.711 156.047,175.840 164.425,175.473 164.868 C 174.498 166.047,171.250 162.788,171.250 160.630 C 171.250 150.522,152.647 146.699,145.128 155.262 C 137.216 164.273,148.893 175.454,162.181 171.591 C 168.873 169.646,172.870 172.650,168.040 175.996 C 159.678 181.791,155.014 196.699,155.003 217.668 L 155.000 224.399 153.281 224.019 C 132.893 219.519,125.259 209.831,119.029 180.549 C 111.632 145.779,100.067 131.849,74.245 126.604 C 71.596 126.065,67.734 125.625,65.663 125.625 C 62.260 125.625,61.872 125.490,61.615 124.219 C 61.459 123.445,60.962 120.729,60.510 118.183 C 59.271 111.208,59.656 111.359,41.875 110.892 C 28.815 110.549,27.032 110.621,25.781 111.539 M333.801 127.979 C 334.804 129.101,335.625 130.472,335.625 131.024 C 335.625 131.577,337.781 140.164,340.416 150.108 C 344.541 165.673,345.084 168.307,344.322 169.056 C 343.610 169.756,198.972 170.655,184.844 170.047 C 182.695 169.955,183.241 167.694,192.595 137.937 C 197.005 123.907,186.895 125.586,265.833 125.777 L 331.978 125.938 333.801 127.979 M356.412 199.175 C 363.382 204.005,363.775 214.414,357.151 218.780 C 354.650 220.428,328.726 220.640,325.353 219.040 C 316.834 214.997,319.876 200.095,329.248 199.957 C 330.865 199.933,335.844 199.411,340.313 198.796 C 352.185 197.164,353.557 197.197,356.412 199.175 M192.078 199.699 C 206.850 201.909,209.367 203.390,209.373 209.875 C 209.381 219.384,199.704 222.871,181.265 220.002 C 168.508 218.018,165.205 207.636,174.950 200.156 C 178.173 197.683,178.543 197.673,192.078 199.699 M291.264 217.935 C 294.697 223.349,293.450 231.075,288.731 233.630 C 286.615 234.776,243.279 234.187,240.730 232.978 C 237.030 231.223,235.085 223.489,237.263 219.188 C 239.538 214.694,237.526 215.000,264.798 215.000 L 289.403 215.000 291.264 217.935 M170.909 267.159 C 166.920 271.149,169.102 290.405,173.951 294.004 C 176.491 295.889,191.635 296.290,195.000 294.562 C 200.001 291.992,203.400 270.900,199.449 266.949 C 197.239 264.739,173.152 264.916,170.909 267.159 M333.157 266.517 C 330.283 268.108,329.384 283.145,331.840 288.552 C 334.695 294.841,350.166 298.297,356.121 293.976 C 361.305 290.214,363.871 270.278,359.603 266.920 C 357.532 265.291,335.965 264.962,333.157 266.517 " ></path></g></svg>