<?xml version="1.0" standalone="no"?>
<!DOCTYPE svg PUBLIC "-//W3C//DTD SVG 20010904//EN"
 "http://www.w3.org/TR/2001/REC-SVG-20010904/DTD/svg10.dtd">
<svg version="1.0" xmlns="http://www.w3.org/2000/svg"
 width="1568.000000pt" height="2127.000000pt" viewBox="0 0 1568.000000 2127.000000"
 preserveAspectRatio="xMidYMid meet">

<g transform="translate(0.000000,2127.000000) scale(0.100000,-0.100000)"
fill="#000000" stroke="none">
<path d="M5625 21119 c-28 -44 -5527 -10506 -5528 -10515 0 -6 1241 -2379
2758 -5273 l2759 -5261 651 0 652 0 1163 2212 c640 1217 1320 2510 1511 2873
191 363 912 1735 1603 3048 691 1314 1256 2393 1256 2398 0 5 -340 656 -756
1447 -416 790 -1164 2212 -1662 3160 -498 947 -909 1719 -913 1715 -4 -5 -170
-318 -369 -697 l-362 -689 40 -76 c561 -1058 2552 -4858 2550 -4866 -9 -34
-4703 -8944 -4709 -8938 -4 5 -627 1187 -1384 2628 -1444 2746 -1566 2978
-2648 5034 -596 1135 -669 1278 -660 1300 5 15 196 382 425 816 229 435 575
1094 770 1465 1918 3647 4231 8045 4275 8128 l55 102 -736 0 c-509 0 -737 -3
-741 -11z"/>
<path d="M8719 21088 c-12 -24 -1256 -2391 -2765 -5260 -1509 -2870 -2744
-5222 -2744 -5227 0 -8 3316 -6320 3325 -6329 1 -2 155 286 340 640 186 354
351 668 368 698 l29 55 -1162 2210 c-1513 2877 -1430 2718 -1430 2726 0 6 688
1316 3480 6624 361 688 784 1492 940 1788 156 296 286 534 291 530 10 -11
4680 -8891 4692 -8923 9 -23 -291 -598 -2748 -5270 -1517 -2885 -2762 -5253
-2767 -5263 -8 -16 28 -17 728 -15 l736 3 700 1330 c384 732 862 1641 1062
2020 199 380 1129 2147 2066 3929 937 1781 1703 3244 1703 3250 -1 6 -158 310
-350 676 -193 366 -789 1502 -1325 2525 -537 1023 -1509 2877 -2160 4120 -652
1243 -1297 2473 -1433 2733 l-247 472 -654 0 -654 0 -21 -42z"/>
</g>
</svg>
