<?xml version="1.0" encoding="iso-8859-1"?>
<svg version="1.1"
	xmlns="http://www.w3.org/2000/svg" 
	xmlns:xlink="http://www.w3.org/1999/xlink"
	viewBox="0 0 480 480">
<g>
	<path d="M239.295,42.714C107.349,42.714,0,150.059,0,282.01c0,54.84,19.062,108.449,53.674,150.935l2.393,2.933h366.458
		l2.391-2.933c34.611-42.485,53.675-96.087,53.675-150.935C478.591,150.059,371.243,42.714,239.295,42.714z M414.919,419.959H63.673
		c-30.828-39.18-47.755-88.012-47.755-137.949c0-123.172,100.211-223.377,223.377-223.377c123.17,0,223.38,100.206,223.38,223.377
		C462.675,331.947,445.748,380.779,414.919,419.959z M159.706,364.981h159.182v33.555H159.706V364.981z M439.324,279.886
		c0,34.886-9.171,69.284-26.512,99.476l-8.288-4.76c16.525-28.75,25.251-61.505,25.251-94.716
		c0-105.034-85.45-190.479-190.48-190.479c-105.029,0-190.479,85.445-190.479,190.479c0,34.01,9.117,67.432,26.358,96.646
		l-8.23,4.854c-18.107-30.69-27.677-65.784-27.677-101.501c0-110.301,89.732-200.033,200.028-200.033
		C349.594,79.853,439.324,169.59,439.324,279.886z M74.16,286.196c0,29.488,7.901,58.463,22.845,83.787l-8.223,4.848
		c-15.814-26.785-24.174-57.444-24.174-88.635c0-96.321,78.362-174.691,174.688-174.691v9.555
		C148.241,121.06,74.16,195.142,74.16,286.196z M413.985,286.196c0,30.468-8.008,60.509-23.159,86.875l-8.279-4.763
		c14.32-24.919,21.89-53.317,21.89-82.112H413.985z M350.896,142.813l-6.15-3.762c-1.844-1.13-4.258-0.711-5.612,0.982
		l-95.667,118.792c-15.741,0.799-29.873,9.144-38.116,22.62c-13.667,22.349-6.606,51.662,15.751,65.325
		c22.347,13.67,51.655,6.61,65.331-15.748c8.18-13.384,9.219-29.669,2.896-43.984l63.243-138.758
		C353.481,146.296,352.758,143.949,350.896,142.813z M244.868,324.719c-9.674,0-17.512-7.836-17.512-17.511
		c0-9.674,7.838-17.51,17.512-17.51c9.666,0,17.509,7.836,17.509,17.51C262.377,316.883,254.534,324.719,244.868,324.719z"/>
</g>
</svg>
