<?xml version="1.0" encoding="iso-8859-1"?>
<svg version="1.1"
	xmlns="http://www.w3.org/2000/svg" 
	xmlns:xlink="http://www.w3.org/1999/xlink"
    viewBox="10 10  1000 1000">
    <g>
        <path d="M709,839.5c0,1.2,0,2.3-0.1,3.5c-0.1,1.4,0.7,3,0,0.7c0.1-0.4,0.1-0.9,0.2-1.3c-0.1,0.9-0.3,1.8-0.5,2.7     s-0.4,1.7-0.6,2.6c-0.4,1.7-1,3.4-1.6,5.1c-1.2,3.7,0.4-1.2,0.5-1.1c0.2,0.2-1.5,3-1.7,3.5c-0.9,1.7-2,3.3-3.1,5     c-0.9,1.5-2.1,1.3-0.4,0.6c0.3-0.3,0.5-0.7,0.8-1c-0.6,0.7-1.1,1.3-1.7,2c-1.2,1.3-2.4,2.5-3.7,3.7c0.1-0.1-1.9,1.7-2,1.7     c2.4-1.8,2.7-2,1-0.8c-0.4,0.2-0.7,0.5-1.1,0.7c-1.6,1.1-3.3,2.1-5,3c-0.8,0.4-1.6,0.7-2.3,1.2c-2.4,1.4,4.7-1.5,0.5-0.2     c-1.7,0.5-3.3,1.1-5.1,1.6c-0.9,0.2-1.7,0.4-2.6,0.6c-0.7,0.1-1.3,0.3-2,0.4c-1.5,0.2-0.9,0.2,1.9-0.3c-1.9-0.3-4.3,0.3-6.3,0.3     c-8.6,0-17.3,0-25.9,0c-40.4,0-80.9,0-121.3,0c-43.9,0-87.8,0-131.6,0c-13,0-25.9,0-38.9,0c-2.4,0-4.8,0-7.2,0c-0.3,0-0.6,0-1,0     c-0.9,0-1.8,0-2.8-0.1c-4.2-0.3,0.3,0.5,0.6,0.2c-0.3,0.5-6-1.3-6.6-1.4c-0.5-0.1-5-1.2-5-1.7c0-0.2,3.9,1.9,1.2,0.4     c-0.8-0.4-1.6-0.8-2.3-1.2c-1.9-1-3.7-2.2-5.5-3.4c-2.6-1.7,1.1,0.7,1,0.8c-0.2,0.1-2.8-2.4-2.9-2.6c-1.3-1.2-2.4-2.5-3.6-3.7     c-2.7-2.8,0.9,1,0.7,1c-0.1,0-1.3-1.8-1.5-2.1c-1.1-1.6-2.1-3.3-3-5c-0.2-0.3-1.6-2.8-1.4-2.9c-0.1,0.1,1.6,4.7,0.3,0.5     c-0.6-1.9-1.2-3.8-1.7-5.7c-0.2-0.9-0.3-1.8-0.5-2.6c-0.8-3.9,0.3,1.3,0.1,1.3c-0.4-0.1-0.3-5-0.3-5.6c0-1.3,0-2.5,0-3.8     c0-7.7,0-15.4,0-23.1c0-31.8,0-63.6,0-95.4c0-44.6,0-89.2,0-133.8c0-47,0-94,0-140.9c0-39,0-77.9,0-116.9c0-20.1,0-40.3,0-60.4     c0-1.4,0-2.7,0-4.1c0-1.1,0.2-2.3,0.2-3.4c0.1-2.8-0.8,4-0.2,1.3c0.4-2,0.8-3.9,1.3-5.9c0.2-0.7,1.2-5,1.7-5     c-0.3,0-2.1,4.1-0.1,0.6c0.5-1,1-1.9,1.5-2.9c1-1.7,2.2-3.2,3.2-4.9c1.5-2.3-3.3,3.6-0.3,0.5c0.6-0.6,1.1-1.3,1.7-1.9     c1.2-1.3,2.5-2.4,3.7-3.6c2.8-2.7-1,0.8-1,0.7c0-0.4,2.7-1.9,3.2-2.2c1.7-1.1,3.4-1.9,5.1-2.9c3.6-2-0.6,0-0.6,0.1     c0-0.1,2.6-1,2.5-0.9c1.7-0.6,3.4-1.1,5.1-1.5c0.9-0.2,1.8-0.3,2.6-0.5c4.3-1-4,0.2,0.1,0c1.7-0.1,3.4-0.2,5.1-0.2c3,0,6,0,9,0     c34.6,0,69.2,0,103.8,0c46.1,0,92.2,0,138.2,0c24.6,0,49.2-0.2,73.9,0c0.8,0,1.5,0,2.3,0c0.9,0,1.8,0.1,2.8,0.2     c2.9,0.1-5-1.1-0.6-0.1c2.2,0.5,4.4,0.9,6.5,1.6c0.8,0.3,1.7,0.6,2.5,0.8c3.7,1.2-1.2-0.4-1.1-0.5c0.2-0.3,5,2.6,5.2,2.7     c0.6,0.3,4.9,2.7,4.9,3.2c0,0.2-3.8-3.4-1-0.7c0.9,0.9,1.9,1.7,2.8,2.6c0.3,0.3,3.7,3.6,3.5,3.8c-0.1,0.1-2.5-3.5-0.8-1     c0.6,0.9,1.2,1.8,1.8,2.7c1,1.7,1.9,3.4,2.8,5.1c1.5,2.7-0.6-1.2-0.4-1.2c0.3,0,1.2,3.5,1.3,3.7c0.5,1.7,1,3.4,1.3,5.2     c0-0.2,0.6,2.6,0.5,2.7c-0.3,0.2-0.3-4.5-0.2-1.2c0,1.4,0.1,2.8,0.2,4.3c0,4.4,0,8.8,0,13.3c0,27,0,54,0,80.9     c0,42.6,0,85.2,0,127.8c0,47.2,0,94.4,0,141.6c0,41.9,0,83.9,0,125.8c0,25.7,0,51.3,0,77C709,832.5,709,836,709,839.5     c0,10.5,9.2,20.5,20,20s20-8.8,20-20c0-14.6,0-29.1,0-43.7c0-36.3,0-72.6,0-108.9c0-47,0-94,0-140.9c0-46.6,0-93.2,0-139.8     c0-35.2,0-70.3,0-105.5c0-9.8,0-19.7,0-29.5c0-8.9-0.1-17.4-2.1-26.2c-7.7-33.3-38.9-56.3-72.6-56.5c-8.7,0-17.3,0-26,0     c-41.3,0-82.5,0-123.8,0c-44.2,0-88.5,0-132.7,0c-12.4,0-24.8,0-37.2,0c-1.9,0-3.7,0-5.6,0c-19.5,0.2-38.5,7.8-52.3,21.7     C281.8,225.1,275,245,275,265.7c0,7.6,0,15.2,0,22.8c0,32.1,0,64.2,0,96.3c0,45.4,0,90.9,0,136.3c0,47.7,0,95.4,0,143.1     c0,38.9,0,77.8,0,116.7c0,19,0,38.1,0,57.1c0.1,26.9,13.8,52.6,37.6,65.9c14.5,8.1,30,9.6,46.1,9.6c35.3,0,70.6,0,105.9,0     c46.7,0,93.4,0,140.1,0c23.4,0,46.8,0.2,70.2,0c40.6-0.4,73.5-33.4,74-74c0.1-10.5-9.3-20.5-20-20     C718.1,820,709.1,828.3,709,839.5z"/>
        <path d="M577,152c0,18.8,0,37.7,0,56.5c6.7-6.7,13.3-13.3,20-20c-49.7,0-99.3,0-149,0c-7,0-14,0-21,0     c6.7,6.7,13.3,13.3,20,20c0-15.3,0-30.6,0-45.9c0-3.1,0-6.1,0-9.2c0-0.5,0-0.9,0-1.4c-0.2-3.8-1.2,3.4,0-0.1c1-3-0.7,1.1-0.7,1.1     s1.1-2.1,1.2-2.3c1.7-3.4-0.5,1.3-0.8,1c0.1,0.1,1.6-2,1.8-1.8c-0.3,0.3-0.7,0.5-1,0.8c-1.4,1-1.3,1,0.1,0.1     c0.2-0.1,0.4-0.2,0.6-0.3c1-0.5,0.7-0.4-0.6,0.2c-0.4,0.2-0.8,0.3-1.2,0.5c0.6-0.2,1.2-0.4,1.9-0.6c0.1,0,1.9-0.5,1.9-0.5     c0.2,0.8-4.6,0.2-1.2,0.3c1,0.1,2.1,0,3.1,0c34.1,0,68.1,0,102.2,0c6.2,0,12.4,0,18.6,0c0.6,0,1.2,0,1.9,0c0.1,0,0.2,0,0.3,0     c3.5-0.2-2.2-1.1-0.5-0.2c0.5,0.2,1.4,0.4,1.9,0.5c4.3,0.9-2.9-1.1-0.6-0.2c2.6,0.9,0.3,1.1,0.6,0.2c-1.2-0.9-1.3-1.1-0.5-0.4     c0.5,0.4,0.9,0.9,1.4,1.3c-0.3,0.3-2.5-4.4-0.8-1c0.1,0.2,1.3,2.2,1.2,2.3C577.7,153.1,576.1,149,577,152     C578.3,155.7,576.9,147.7,577,152c0.3,10.4,9,20.5,20,20c10.6-0.5,20.3-8.8,20-20c-0.7-23.2-18.7-40.9-41.9-41.5     c-3.6-0.1-7.1,0-10.7,0c-19.1,0-38.3,0-57.4,0c-17.6,0-35.2,0-52.8,0c-8.7,0-17.1,0.8-25.1,4.9c-14.7,7.6-22.1,22.9-22.1,39     c0,18,0,36.1,0,54.1c0,10.8,9.2,20,20,20c49.7,0,99.3,0,149,0c7,0,14,0,21,0c10.8,0,20-9.2,20-20c0-18.8,0-37.7,0-56.5     c0-10.5-9.2-20.5-20-20S577,140.8,577,152z"/>
        <path d="M543.8,378.8c-13.8,18.4-27.6,36.8-41.3,55.2c-21.9,29.2-43.7,58.4-65.6,87.6c-5.1,6.8-10.1,13.5-15.2,20.3    c-4.2,5.5-3.3,14.6,0,20.2c3.6,6.1,10.2,9.9,17.3,9.9c42.7,0,85.3,0,128,0c6.1,0,12.1,0,18.2,0c-5.8-10-11.5-20.1-17.3-30.1    c-13.8,18.4-27.5,36.8-41.3,55.2c-21.8,29.2-43.7,58.4-65.5,87.6c-5.1,6.8-10.1,13.5-15.2,20.3c-6.3,8.4-1.6,22.7,7.2,27.4    c10.5,5.5,20.7,1.8,27.4-7.2c13.8-18.4,27.5-36.8,41.3-55.2c21.8-29.2,43.7-58.4,65.5-87.6c5.1-6.8,10.1-13.5,15.2-20.3    c4.1-5.5,3.3-14.5,0-20.2c-3.6-6.1-10.2-9.9-17.3-9.9c-42.7,0-85.3,0-128,0c-6.1,0-12.1,0-18.2,0c5.8,10,11.5,20.1,17.3,30.1    c13.8-18.4,27.6-36.8,41.3-55.2c21.9-29.2,43.7-58.4,65.6-87.6c5.1-6.8,10.1-13.5,15.2-20.3c6.3-8.4,1.6-22.7-7.2-27.4    C560.7,366.1,550.5,369.8,543.8,378.8L543.8,378.8z"/>
    </g>
</svg>