<?xml version="1.0" encoding="iso-8859-1"?>
<svg version="1.1"
	xmlns="http://www.w3.org/2000/svg" 
	xmlns:xlink="http://www.w3.org/1999/xlink"
	viewBox="0 0 300 300">
	<g>
		<path d="M293.26,184.14h-82.877l-12.692-76.138c-0.546-3.287-3.396-5.701-6.718-5.701c-0.034,0-0.061,0-0.089,0
			c-3.369,0.027-6.199,2.523-6.677,5.845L171.7,195.748l-14.874-148.69c-0.355-3.43-3.205-6.056-6.643-6.138
			c-0.048,0-0.096,0-0.143,0c-3.39,0-6.274,2.489-6.752,5.852L123.667,184.14h-9.405l-12.221-42.782
			c-0.866-3.028-3.812-5.149-6.8-4.944c-3.13,0.109-5.777,2.332-6.431,5.395l-8.941,42.332H6.82c-3.771,0-6.82,3.049-6.82,6.82
			c0,3.778,3.049,6.82,6.82,6.82h78.566c3.219,0,6.002-2.251,6.67-5.408l4.406-20.856l6.09,21.313
			c0.839,2.939,3.526,4.951,6.568,4.951h20.46c3.396,0,6.274-2.489,6.752-5.845l12.508-87.596l14.874,148.683
			c0.355,3.437,3.205,6.056,6.643,6.138c0.048,0,0.095,0,0.143,0c3.39,0,6.274-2.489,6.752-5.845l14.227-99.599l6.397,38.362
			c0.546,3.287,3.396,5.702,6.725,5.702h88.66c3.771,0,6.82-3.049,6.82-6.82C300.08,187.189,297.031,184.14,293.26,184.14z"/>
	</g>
</svg>
