<?xml version="1.0" encoding="iso-8859-1"?>
<svg version="1.1"
	xmlns="http://www.w3.org/2000/svg" 
	xmlns:xlink="http://www.w3.org/1999/xlink"
    viewBox="4 4 17 17">
    <g>
        <path d="M12.5,20A7.5,7.5,0,0,1,5,12.5H6A6.5,6.5,0,1,0,12.5,6V5a7.5,7.5,0,0,1,0,15Z"/>
        <path d="M6,12.5H5a7.59,7.59,0,0,1,.08-1.07l1,.14A5.82,5.82,0,0,0,6,12.5Z"/>
        <path d="M10.47,5.28A7.18,7.18,0,0,0,8.71,6l.5.86a6.83,6.83,0,0,1,1.53-.65ZM7.91,6.57A7.84,7.84,0,0,0,6.56,7.92l.79.61A6.48,6.48,0,0,1,8.52,7.36ZM6,8.72a7.66,7.66,0,0,0-.75,1.77l1,.27a6,6,0,0,1,.64-1.53Z"/>
        <path d="M11.57,6.07l-.14-1A7.59,7.59,0,0,1,12.5,5V6A5.82,5.82,0,0,0,11.57,6.07Z"/>
        <path d="M12.5,13h-4V12H12V9.5h1v3A.5.5,0,0,1,12.5,13Z"/>
    </g>
</svg>